<svg xmlns="http://www.w3.org/2000/svg" width="300" height="100" viewBox="0 0 300 100"><title>DashCustomLogo</title><path d="M14.43,97.18a3.21,3.21,0,0,1-.93-2.32V6a3.51,3.51,0,0,1,.87-2.45,3,3,0,0,1,2.33-1H49.2q39.18,0,40,37.12.27,7.9.27,10.64t-.27,10.5q-.54,19.11-10,28.18T49.87,98.13H16.7A3.07,3.07,0,0,1,14.43,97.18ZM49.2,82.44q11.19,0,16.12-5.12t5.2-16.85q.27-8.17.27-10.23t-.27-10.1Q70.25,29,65,23.64T48.54,18.31H32V82.44Z"/><path d="M232.86,66V77.34c0,1.11-.65,2-1.46,2H205.73c-.79,0-1.44-.89-1.44-2V66c0-1.11.65-2,1.44-2H231.4C232.21,64,232.86,64.91,232.86,66Z"/><path d="M156.18,94.76a2.76,2.76,0,0,1-.52,1.69,46.41,46.41,0,0,1-7.49-2.51,24.32,24.32,0,0,1-11.42-9.63A25.86,25.86,0,0,1,134.09,79H132l-.21-.53L127,63.39l-15.6-48.65,1.73,1.77L36.91,94c-2.78,2.81-4.18,3.62-6.37,3.62H17.42A3.92,3.92,0,0,1,13.5,93.7L99.56,6.3a26.58,26.58,0,0,1,1.76-2,11.28,11.28,0,0,1,1.5-1.35,4.46,4.46,0,0,1,1.94-.29h14.52A4.63,4.63,0,0,1,124,6l21,57.37,2,5.39L150.72,79l5.33,14.55A4.09,4.09,0,0,1,156.18,94.76Z"/><path d="M199.56,56.84A21.71,21.71,0,0,0,191,48.46a67.56,67.56,0,0,0-15.53-6,85,85,0,0,1-11-4.12,15,15,0,0,1-5.58-4.28,10.08,10.08,0,0,1-1.76-6.12c0-3.56,1.17-6.26,3.53-8.13s5.6-2.79,9.74-2.79a14.93,14.93,0,0,1,9.29,2.85A10.9,10.9,0,0,1,184.08,27a3.23,3.23,0,0,0,3.2,2.52h10.3a2,2,0,0,0,1.65-.8,3.09,3.09,0,0,0,.66-2,23.92,23.92,0,0,0-3.7-11.52,27.91,27.91,0,0,0-10.13-9.66A30.67,30.67,0,0,0,170.37,1.7a32.39,32.39,0,0,0-15.32,3.46A24.57,24.57,0,0,0,145,14.62a26.78,26.78,0,0,0-3.48,13.72c0,7.65,2,13.51,6,17.66s10.37,7.43,19.07,9.91c5.32,1.69,9.3,3.11,12,4.26a16.43,16.43,0,0,1,6.09,4.14,9.2,9.2,0,0,1,2.05,6.13,10.47,10.47,0,0,1-4,8.71c-2.66,2.09-7.36,3.72-12.58,3.65s-9.29.57-14.94-1.52a8.74,8.74,0,0,1-3.06-1.94,16.11,16.11,0,0,1-4.14-7.7,6.22,6.22,0,0,0-1.39-1.94,2.33,2.33,0,0,0-.73-.39,3.92,3.92,0,0,0-1.31-.2h-9.84a2.06,2.06,0,0,0-1.66.79c-.45.54-3.65,1-3.65,1.78.09,2.59,1.36,4.77,2.19,7.14a34.46,34.46,0,0,0,2.93,5.94c2.43,3.9,6.65,8.25,11.52,10.29a56.38,56.38,0,0,0,8.48,2.57c4.89,1.13,8,.51,16.64.51a37.08,37.08,0,0,0,16.11-3.84,25,25,0,0,0,11.06-9.66,27.53,27.53,0,0,0,3.94-14.86Q202.33,61.93,199.56,56.84Z"/><path d="M218.1,96.8a3.06,3.06,0,0,1-.94-2.27V6A3.36,3.36,0,0,1,218,3.56a3,3,0,0,1,2.33-.94h12.13a3.05,3.05,0,0,1,2.33.94A3.4,3.4,0,0,1,235.68,6V64H275V6a3.36,3.36,0,0,1,.87-2.39,3,3,0,0,1,2.33-.94h12A3.2,3.2,0,0,1,293.5,6V94.53a3,3,0,0,1-.93,2.33,3.39,3.39,0,0,1-2.4.87h-12a3.18,3.18,0,0,1-3.2-3.2V79.34h-39.3V94.53a3.24,3.24,0,0,1-.86,2.27,3,3,0,0,1-2.33.93H220.36A3.07,3.07,0,0,1,218.1,96.8Z"/><path d="M99.05,64h77.79c4.95,0,7.19,3.62,7.19,7.66,0,4.28-3.63,7.66-7.19,7.66H99.05a7.28,7.28,0,0,1-7.28-7.28v-.77A7.28,7.28,0,0,1,99.05,64Z"/></svg>